<?xml version="1.0" encoding="UTF-8" standalone="no"?>
<!DOCTYPE svg PUBLIC "-//W3C//DTD SVG 1.1//EN"
 "http://www.w3.org/Graphics/SVG/1.1/DTD/svg11.dtd">
<!-- Generated by graphviz version 2.47.3 (20210619.1520)
 -->
<!-- Title: dependencies Pages: 1 -->
<svg width="1177pt" height="174pt"
 viewBox="0.00 0.00 1177.00 173.80" xmlns="http://www.w3.org/2000/svg" xmlns:xlink="http://www.w3.org/1999/xlink">
<g id="graph0" class="graph" transform="scale(1 1) rotate(0) translate(4 169.8)">
<title>dependencies</title>
<polygon fill="white" stroke="transparent" points="-4,4 -4,-169.8 1173,-169.8 1173,4 -4,4"/>
<text text-anchor="middle" x="584.5" y="-8.2" font-family="sans-serif" font-size="14.00">dependencies</text>
<g id="clust1" class="cluster">
<title>cluster_CheckoutModule</title>
<polygon fill="none" stroke="black" stroke-dasharray="1,5" points="8,-32.8 8,-157.8 1161,-157.8 1161,-32.8 8,-32.8"/>
</g>
<g id="clust9" class="cluster">
<title>cluster_CheckoutModule_providers</title>
<polygon fill="none" stroke="black" points="983,-40.8 983,-92.8 1153,-92.8 1153,-40.8 983,-40.8"/>
</g>
<g id="clust2" class="cluster">
<title>cluster_CheckoutModule_declarations</title>
<polygon fill="none" stroke="black" points="541,-40.8 541,-92.8 975,-92.8 975,-40.8 541,-40.8"/>
</g>
<g id="clust6" class="cluster">
<title>cluster_CheckoutModule_imports</title>
<polygon fill="none" stroke="black" points="16,-40.8 16,-92.8 533,-92.8 533,-40.8 16,-40.8"/>
</g>
<!-- CheckoutComponent -->
<g id="node1" class="node">
<title>CheckoutComponent</title>
<polygon fill="#ffffb3" stroke="black" points="967.49,-84.8 832.51,-84.8 832.51,-48.8 967.49,-48.8 967.49,-84.8"/>
<text text-anchor="middle" x="900" y="-62.6" font-family="Times,serif" font-size="14.00">CheckoutComponent</text>
</g>
<!-- CheckoutModule -->
<g id="node4" class="node">
<title>CheckoutModule</title>
<polygon fill="#8dd3c7" stroke="black" points="597.71,-149.8 594.71,-153.8 573.71,-153.8 570.71,-149.8 484.29,-149.8 484.29,-113.8 597.71,-113.8 597.71,-149.8"/>
<text text-anchor="middle" x="541" y="-127.6" font-family="Times,serif" font-size="14.00">CheckoutModule</text>
</g>
<!-- CheckoutComponent&#45;&gt;CheckoutModule -->
<g id="edge1" class="edge">
<title>CheckoutComponent&#45;&gt;CheckoutModule</title>
<path fill="none" stroke="black" d="M900,-84.91C900,-104.14 900,-131.8 900,-131.8 900,-131.8 607.88,-131.8 607.88,-131.8"/>
<polygon fill="black" stroke="black" points="607.88,-128.3 597.88,-131.8 607.88,-135.3 607.88,-128.3"/>
</g>
<!-- FooterComponent -->
<g id="node2" class="node">
<title>FooterComponent</title>
<polygon fill="#ffffb3" stroke="black" points="814.88,-84.8 697.12,-84.8 697.12,-48.8 814.88,-48.8 814.88,-84.8"/>
<text text-anchor="middle" x="756" y="-62.6" font-family="Times,serif" font-size="14.00">FooterComponent</text>
</g>
<!-- FooterComponent&#45;&gt;CheckoutModule -->
<g id="edge2" class="edge">
<title>FooterComponent&#45;&gt;CheckoutModule</title>
<path fill="none" stroke="black" d="M756,-84.83C756,-101.2 756,-122.8 756,-122.8 756,-122.8 607.77,-122.8 607.77,-122.8"/>
<polygon fill="black" stroke="black" points="607.77,-119.3 597.77,-122.8 607.77,-126.3 607.77,-119.3"/>
</g>
<!-- InfoPlanComponent -->
<g id="node3" class="node">
<title>InfoPlanComponent</title>
<polygon fill="#ffffb3" stroke="black" points="678.54,-84.8 549.46,-84.8 549.46,-48.8 678.54,-48.8 678.54,-84.8"/>
<text text-anchor="middle" x="614" y="-62.6" font-family="Times,serif" font-size="14.00">InfoPlanComponent</text>
</g>
<!-- InfoPlanComponent&#45;&gt;CheckoutModule -->
<g id="edge3" class="edge">
<title>InfoPlanComponent&#45;&gt;CheckoutModule</title>
<path fill="none" stroke="black" d="M573.42,-84.91C573.42,-84.91 573.42,-103.79 573.42,-103.79"/>
<polygon fill="black" stroke="black" points="569.92,-103.79 573.42,-113.79 576.92,-103.79 569.92,-103.79"/>
</g>
<!-- BootstrapModule -->
<g id="node5" class="node">
<title>BootstrapModule</title>
<polygon fill="#8dd3c7" stroke="black" points="524.99,-84.8 521.99,-88.8 500.99,-88.8 497.99,-84.8 411.01,-84.8 411.01,-48.8 524.99,-48.8 524.99,-84.8"/>
<text text-anchor="middle" x="468" y="-62.6" font-family="Times,serif" font-size="14.00">BootstrapModule</text>
</g>
<!-- BootstrapModule&#45;&gt;CheckoutModule -->
<g id="edge4" class="edge">
<title>BootstrapModule&#45;&gt;CheckoutModule</title>
<path fill="none" stroke="black" d="M504.7,-84.91C504.7,-84.91 504.7,-103.79 504.7,-103.79"/>
<polygon fill="black" stroke="black" points="501.2,-103.79 504.7,-113.79 508.2,-103.79 501.2,-103.79"/>
</g>
<!-- CheckoutRoutingModule -->
<g id="node6" class="node">
<title>CheckoutRoutingModule</title>
<polygon fill="#8dd3c7" stroke="black" points="393.32,-84.8 390.32,-88.8 369.32,-88.8 366.32,-84.8 234.68,-84.8 234.68,-48.8 393.32,-48.8 393.32,-84.8"/>
<text text-anchor="middle" x="314" y="-62.6" font-family="Times,serif" font-size="14.00">CheckoutRoutingModule</text>
</g>
<!-- CheckoutRoutingModule&#45;&gt;CheckoutModule -->
<g id="edge5" class="edge">
<title>CheckoutRoutingModule&#45;&gt;CheckoutModule</title>
<path fill="none" stroke="black" d="M314,-84.83C314,-101.2 314,-122.8 314,-122.8 314,-122.8 474.3,-122.8 474.3,-122.8"/>
<polygon fill="black" stroke="black" points="474.3,-126.3 484.3,-122.8 474.3,-119.3 474.3,-126.3"/>
</g>
<!-- MaterialModule -->
<g id="node7" class="node">
<title>MaterialModule</title>
<polygon fill="#8dd3c7" stroke="black" points="216.47,-84.8 213.47,-88.8 192.47,-88.8 189.47,-84.8 109.53,-84.8 109.53,-48.8 216.47,-48.8 216.47,-84.8"/>
<text text-anchor="middle" x="163" y="-62.6" font-family="Times,serif" font-size="14.00">MaterialModule</text>
</g>
<!-- MaterialModule&#45;&gt;CheckoutModule -->
<g id="edge6" class="edge">
<title>MaterialModule&#45;&gt;CheckoutModule</title>
<path fill="none" stroke="black" d="M163,-84.91C163,-104.14 163,-131.8 163,-131.8 163,-131.8 474,-131.8 474,-131.8"/>
<polygon fill="black" stroke="black" points="474,-135.3 484,-131.8 474,-128.3 474,-135.3"/>
</g>
<!-- NgBrazil -->
<g id="node8" class="node">
<title>NgBrazil</title>
<polygon fill="#8dd3c7" stroke="black" points="91.81,-84.8 88.81,-88.8 67.81,-88.8 64.81,-84.8 24.19,-84.8 24.19,-48.8 91.81,-48.8 91.81,-84.8"/>
<text text-anchor="middle" x="58" y="-62.6" font-family="Times,serif" font-size="14.00">NgBrazil</text>
</g>
<!-- NgBrazil&#45;&gt;CheckoutModule -->
<g id="edge7" class="edge">
<title>NgBrazil&#45;&gt;CheckoutModule</title>
<path fill="none" stroke="black" d="M58,-85.09C58,-107.01 58,-140.8 58,-140.8 58,-140.8 474.17,-140.8 474.17,-140.8"/>
<polygon fill="black" stroke="black" points="474.17,-144.3 484.17,-140.8 474.17,-137.3 474.17,-144.3"/>
</g>
<!-- CheckoutService -->
<g id="node9" class="node">
<title>CheckoutService</title>
<ellipse fill="#fdb462" stroke="black" cx="1068" cy="-66.8" rx="77.01" ry="18"/>
<text text-anchor="middle" x="1068" y="-62.6" font-family="Times,serif" font-size="14.00">CheckoutService</text>
</g>
<!-- CheckoutService&#45;&gt;CheckoutModule -->
<g id="edge8" class="edge">
<title>CheckoutService&#45;&gt;CheckoutModule</title>
<path fill="none" stroke="black" d="M1068,-85.09C1068,-107.01 1068,-140.8 1068,-140.8 1068,-140.8 607.65,-140.8 607.65,-140.8"/>
<polygon fill="black" stroke="black" points="607.65,-137.3 597.65,-140.8 607.65,-144.3 607.65,-137.3"/>
</g>
</g>
</svg>
