<?xml version="1.0" encoding="UTF-8" standalone="no"?>
<!DOCTYPE svg PUBLIC "-//W3C//DTD SVG 1.1//EN"
 "http://www.w3.org/Graphics/SVG/1.1/DTD/svg11.dtd">
<!-- Generated by graphviz version 2.47.3 (20210619.1520)
 -->
<!-- Title: dependencies Pages: 1 -->
<svg width="1356pt" height="174pt"
 viewBox="0.00 0.00 1356.00 173.80" xmlns="http://www.w3.org/2000/svg" xmlns:xlink="http://www.w3.org/1999/xlink">
<g id="graph0" class="graph" transform="scale(1 1) rotate(0) translate(4 169.8)">
<title>dependencies</title>
<polygon fill="white" stroke="transparent" points="-4,4 -4,-169.8 1352,-169.8 1352,4 -4,4"/>
<text text-anchor="middle" x="674" y="-8.2" font-family="sans-serif" font-size="14.00">dependencies</text>
<g id="clust1" class="cluster">
<title>cluster_PlansModule</title>
<polygon fill="none" stroke="black" stroke-dasharray="1,5" points="8,-32.8 8,-157.8 1340,-157.8 1340,-32.8 8,-32.8"/>
</g>
<g id="clust7" class="cluster">
<title>cluster_PlansModule_imports</title>
<polygon fill="none" stroke="black" points="924,-40.8 924,-92.8 1332,-92.8 1332,-40.8 924,-40.8"/>
</g>
<g id="clust10" class="cluster">
<title>cluster_PlansModule_providers</title>
<polygon fill="none" stroke="black" points="618,-40.8 618,-92.8 916,-92.8 916,-40.8 618,-40.8"/>
</g>
<g id="clust2" class="cluster">
<title>cluster_PlansModule_declarations</title>
<polygon fill="none" stroke="black" points="16,-40.8 16,-92.8 610,-92.8 610,-40.8 16,-40.8"/>
</g>
<!-- FooterComponent -->
<g id="node1" class="node">
<title>FooterComponent</title>
<polygon fill="#ffffb3" stroke="black" points="601.88,-84.8 484.12,-84.8 484.12,-48.8 601.88,-48.8 601.88,-84.8"/>
<text text-anchor="middle" x="543" y="-62.6" font-family="Times,serif" font-size="14.00">FooterComponent</text>
</g>
<!-- PlansModule -->
<g id="node5" class="node">
<title>PlansModule</title>
<polygon fill="#8dd3c7" stroke="black" points="734.88,-149.8 731.88,-153.8 710.88,-153.8 707.88,-149.8 645.12,-149.8 645.12,-113.8 734.88,-113.8 734.88,-149.8"/>
<text text-anchor="middle" x="690" y="-127.6" font-family="Times,serif" font-size="14.00">PlansModule</text>
</g>
<!-- FooterComponent&#45;&gt;PlansModule -->
<g id="edge1" class="edge">
<title>FooterComponent&#45;&gt;PlansModule</title>
<path fill="none" stroke="black" d="M543,-84.81C543,-100.85 543,-121.8 543,-121.8 543,-121.8 635.1,-121.8 635.1,-121.8"/>
<polygon fill="black" stroke="black" points="635.1,-125.3 645.1,-121.8 635.1,-118.3 635.1,-125.3"/>
</g>
<!-- HeaderHomeComponent -->
<g id="node2" class="node">
<title>HeaderHomeComponent</title>
<polygon fill="#ffffb3" stroke="black" points="465.96,-84.8 310.04,-84.8 310.04,-48.8 465.96,-48.8 465.96,-84.8"/>
<text text-anchor="middle" x="388" y="-62.6" font-family="Times,serif" font-size="14.00">HeaderHomeComponent</text>
</g>
<!-- HeaderHomeComponent&#45;&gt;PlansModule -->
<g id="edge2" class="edge">
<title>HeaderHomeComponent&#45;&gt;PlansModule</title>
<path fill="none" stroke="black" d="M388,-85.07C388,-103.36 388,-128.8 388,-128.8 388,-128.8 635.11,-128.8 635.11,-128.8"/>
<polygon fill="black" stroke="black" points="635.11,-132.3 645.11,-128.8 635.11,-125.3 635.11,-132.3"/>
</g>
<!-- PlansComponent -->
<g id="node3" class="node">
<title>PlansComponent</title>
<polygon fill="#ffffb3" stroke="black" points="291.67,-84.8 180.33,-84.8 180.33,-48.8 291.67,-48.8 291.67,-84.8"/>
<text text-anchor="middle" x="236" y="-62.6" font-family="Times,serif" font-size="14.00">PlansComponent</text>
</g>
<!-- PlansComponent&#45;&gt;PlansModule -->
<g id="edge3" class="edge">
<title>PlansComponent&#45;&gt;PlansModule</title>
<path fill="none" stroke="black" d="M236,-84.93C236,-105.37 236,-135.8 236,-135.8 236,-135.8 634.81,-135.8 634.81,-135.8"/>
<polygon fill="black" stroke="black" points="634.81,-139.3 644.81,-135.8 634.81,-132.3 634.81,-139.3"/>
</g>
<!-- ShowPlanComponent -->
<g id="node4" class="node">
<title>ShowPlanComponent</title>
<polygon fill="#ffffb3" stroke="black" points="162.11,-84.8 23.89,-84.8 23.89,-48.8 162.11,-48.8 162.11,-84.8"/>
<text text-anchor="middle" x="93" y="-62.6" font-family="Times,serif" font-size="14.00">ShowPlanComponent</text>
</g>
<!-- ShowPlanComponent&#45;&gt;PlansModule -->
<g id="edge4" class="edge">
<title>ShowPlanComponent&#45;&gt;PlansModule</title>
<path fill="none" stroke="black" d="M93,-84.81C93,-107.29 93,-142.8 93,-142.8 93,-142.8 634.64,-142.8 634.64,-142.8"/>
<polygon fill="black" stroke="black" points="634.64,-146.3 644.64,-142.8 634.64,-139.3 634.64,-146.3"/>
</g>
<!-- BootstrapModule -->
<g id="node6" class="node">
<title>BootstrapModule</title>
<polygon fill="#8dd3c7" stroke="black" points="1323.99,-84.8 1320.99,-88.8 1299.99,-88.8 1296.99,-84.8 1210.01,-84.8 1210.01,-48.8 1323.99,-48.8 1323.99,-84.8"/>
<text text-anchor="middle" x="1267" y="-62.6" font-family="Times,serif" font-size="14.00">BootstrapModule</text>
</g>
<!-- BootstrapModule&#45;&gt;PlansModule -->
<g id="edge5" class="edge">
<title>BootstrapModule&#45;&gt;PlansModule</title>
<path fill="none" stroke="black" d="M1267,-84.81C1267,-107.29 1267,-142.8 1267,-142.8 1267,-142.8 745.28,-142.8 745.28,-142.8"/>
<polygon fill="black" stroke="black" points="745.28,-139.3 735.28,-142.8 745.28,-146.3 745.28,-139.3"/>
</g>
<!-- MaterialModule -->
<g id="node7" class="node">
<title>MaterialModule</title>
<polygon fill="#8dd3c7" stroke="black" points="1192.47,-84.8 1189.47,-88.8 1168.47,-88.8 1165.47,-84.8 1085.53,-84.8 1085.53,-48.8 1192.47,-48.8 1192.47,-84.8"/>
<text text-anchor="middle" x="1139" y="-62.6" font-family="Times,serif" font-size="14.00">MaterialModule</text>
</g>
<!-- MaterialModule&#45;&gt;PlansModule -->
<g id="edge6" class="edge">
<title>MaterialModule&#45;&gt;PlansModule</title>
<path fill="none" stroke="black" d="M1139,-84.93C1139,-105.37 1139,-135.8 1139,-135.8 1139,-135.8 745.11,-135.8 745.11,-135.8"/>
<polygon fill="black" stroke="black" points="745.11,-132.3 735.11,-135.8 745.11,-139.3 745.11,-132.3"/>
</g>
<!-- PlansRoutingModule -->
<g id="node8" class="node">
<title>PlansRoutingModule</title>
<polygon fill="#8dd3c7" stroke="black" points="1067.5,-84.8 1064.5,-88.8 1043.5,-88.8 1040.5,-84.8 932.5,-84.8 932.5,-48.8 1067.5,-48.8 1067.5,-84.8"/>
<text text-anchor="middle" x="1000" y="-62.6" font-family="Times,serif" font-size="14.00">PlansRoutingModule</text>
</g>
<!-- PlansRoutingModule&#45;&gt;PlansModule -->
<g id="edge7" class="edge">
<title>PlansRoutingModule&#45;&gt;PlansModule</title>
<path fill="none" stroke="black" d="M1000,-85.07C1000,-103.36 1000,-128.8 1000,-128.8 1000,-128.8 745.08,-128.8 745.08,-128.8"/>
<polygon fill="black" stroke="black" points="745.08,-125.3 735.08,-128.8 745.08,-132.3 745.08,-125.3"/>
</g>
<!-- Base64Service -->
<g id="node9" class="node">
<title>Base64Service</title>
<ellipse fill="#fdb462" stroke="black" cx="840" cy="-66.8" rx="68.34" ry="18"/>
<text text-anchor="middle" x="840" y="-62.6" font-family="Times,serif" font-size="14.00">Base64Service</text>
</g>
<!-- Base64Service&#45;&gt;PlansModule -->
<g id="edge8" class="edge">
<title>Base64Service&#45;&gt;PlansModule</title>
<path fill="none" stroke="black" d="M840,-84.81C840,-100.85 840,-121.8 840,-121.8 840,-121.8 745,-121.8 745,-121.8"/>
<polygon fill="black" stroke="black" points="745,-118.3 735,-121.8 745,-125.3 745,-118.3"/>
</g>
<!-- HomeService -->
<g id="node10" class="node">
<title>HomeService</title>
<ellipse fill="#fdb462" stroke="black" cx="690" cy="-66.8" rx="63.68" ry="18"/>
<text text-anchor="middle" x="690" y="-62.6" font-family="Times,serif" font-size="14.00">HomeService</text>
</g>
<!-- HomeService&#45;&gt;PlansModule -->
<g id="edge9" class="edge">
<title>HomeService&#45;&gt;PlansModule</title>
<path fill="none" stroke="black" d="M690,-84.91C690,-84.91 690,-103.79 690,-103.79"/>
<polygon fill="black" stroke="black" points="686.5,-103.79 690,-113.79 693.5,-103.79 686.5,-103.79"/>
</g>
</g>
</svg>
