<?xml version="1.0" encoding="UTF-8" standalone="no"?>
<!DOCTYPE svg PUBLIC "-//W3C//DTD SVG 1.1//EN"
 "http://www.w3.org/Graphics/SVG/1.1/DTD/svg11.dtd">
<!-- Generated by graphviz version 2.47.3 (20210619.1520)
 -->
<!-- Title: dependencies Pages: 1 -->
<svg width="1792pt" height="174pt"
 viewBox="0.00 0.00 1792.00 173.80" xmlns="http://www.w3.org/2000/svg" xmlns:xlink="http://www.w3.org/1999/xlink">
<g id="graph0" class="graph" transform="scale(1 1) rotate(0) translate(4 169.8)">
<title>dependencies</title>
<polygon fill="white" stroke="transparent" points="-4,4 -4,-169.8 1788,-169.8 1788,4 -4,4"/>
<text text-anchor="middle" x="892" y="-8.2" font-family="sans-serif" font-size="14.00">dependencies</text>
<g id="clust1" class="cluster">
<title>cluster_HomeModule</title>
<polygon fill="none" stroke="black" stroke-dasharray="1,5" points="8,-32.8 8,-157.8 1776,-157.8 1776,-32.8 8,-32.8"/>
</g>
<g id="clust2" class="cluster">
<title>cluster_HomeModule_declarations</title>
<polygon fill="none" stroke="black" points="704,-40.8 704,-92.8 1768,-92.8 1768,-40.8 704,-40.8"/>
</g>
<g id="clust13" class="cluster">
<title>cluster_HomeModule_providers</title>
<polygon fill="none" stroke="black" points="552,-40.8 552,-92.8 696,-92.8 696,-40.8 552,-40.8"/>
</g>
<g id="clust10" class="cluster">
<title>cluster_HomeModule_imports</title>
<polygon fill="none" stroke="black" points="16,-40.8 16,-92.8 544,-92.8 544,-40.8 16,-40.8"/>
</g>
<!-- BenefitsComponent -->
<g id="node1" class="node">
<title>BenefitsComponent</title>
<polygon fill="#ffffb3" stroke="black" points="1759.98,-84.8 1632.02,-84.8 1632.02,-48.8 1759.98,-48.8 1759.98,-84.8"/>
<text text-anchor="middle" x="1696" y="-62.6" font-family="Times,serif" font-size="14.00">BenefitsComponent</text>
</g>
<!-- HomeModule -->
<g id="node8" class="node">
<title>HomeModule</title>
<polygon fill="#8dd3c7" stroke="black" points="917.76,-149.8 914.76,-153.8 893.76,-153.8 890.76,-149.8 824.24,-149.8 824.24,-113.8 917.76,-113.8 917.76,-149.8"/>
<text text-anchor="middle" x="871" y="-127.6" font-family="Times,serif" font-size="14.00">HomeModule</text>
</g>
<!-- BenefitsComponent&#45;&gt;HomeModule -->
<g id="edge1" class="edge">
<title>BenefitsComponent&#45;&gt;HomeModule</title>
<path fill="none" stroke="black" d="M1696,-84.89C1696,-107.93 1696,-144.8 1696,-144.8 1696,-144.8 928.02,-144.8 928.02,-144.8"/>
<polygon fill="black" stroke="black" points="928.02,-141.3 918.02,-144.8 928.02,-148.3 928.02,-141.3"/>
</g>
<!-- DestinationsComponent -->
<g id="node2" class="node">
<title>DestinationsComponent</title>
<polygon fill="#ffffb3" stroke="black" points="1613.82,-84.8 1462.18,-84.8 1462.18,-48.8 1613.82,-48.8 1613.82,-84.8"/>
<text text-anchor="middle" x="1538" y="-62.6" font-family="Times,serif" font-size="14.00">DestinationsComponent</text>
</g>
<!-- DestinationsComponent&#45;&gt;HomeModule -->
<g id="edge2" class="edge">
<title>DestinationsComponent&#45;&gt;HomeModule</title>
<path fill="none" stroke="black" d="M1538,-85.08C1538,-106.12 1538,-137.8 1538,-137.8 1538,-137.8 927.9,-137.8 927.9,-137.8"/>
<polygon fill="black" stroke="black" points="927.9,-134.3 917.9,-137.8 927.9,-141.3 927.9,-134.3"/>
</g>
<!-- FooterComponent -->
<g id="node3" class="node">
<title>FooterComponent</title>
<polygon fill="#ffffb3" stroke="black" points="1443.88,-84.8 1326.12,-84.8 1326.12,-48.8 1443.88,-48.8 1443.88,-84.8"/>
<text text-anchor="middle" x="1385" y="-62.6" font-family="Times,serif" font-size="14.00">FooterComponent</text>
</g>
<!-- FooterComponent&#45;&gt;HomeModule -->
<g id="edge3" class="edge">
<title>FooterComponent&#45;&gt;HomeModule</title>
<path fill="none" stroke="black" d="M1385,-84.91C1385,-104.14 1385,-131.8 1385,-131.8 1385,-131.8 927.98,-131.8 927.98,-131.8"/>
<polygon fill="black" stroke="black" points="927.98,-128.3 917.98,-131.8 927.98,-135.3 927.98,-128.3"/>
</g>
<!-- HeaderComponent -->
<g id="node4" class="node">
<title>HeaderComponent</title>
<polygon fill="#ffffb3" stroke="black" points="1307.74,-84.8 1186.26,-84.8 1186.26,-48.8 1307.74,-48.8 1307.74,-84.8"/>
<text text-anchor="middle" x="1247" y="-62.6" font-family="Times,serif" font-size="14.00">HeaderComponent</text>
</g>
<!-- HeaderComponent&#45;&gt;HomeModule -->
<g id="edge4" class="edge">
<title>HeaderComponent&#45;&gt;HomeModule</title>
<path fill="none" stroke="black" d="M1247,-84.82C1247,-102.17 1247,-125.8 1247,-125.8 1247,-125.8 927.86,-125.8 927.86,-125.8"/>
<polygon fill="black" stroke="black" points="927.86,-122.3 917.86,-125.8 927.86,-129.3 927.86,-122.3"/>
</g>
<!-- HomeComponent -->
<g id="node5" class="node">
<title>HomeComponent</title>
<polygon fill="#ffffb3" stroke="black" points="1167.55,-84.8 1052.45,-84.8 1052.45,-48.8 1167.55,-48.8 1167.55,-84.8"/>
<text text-anchor="middle" x="1110" y="-62.6" font-family="Times,serif" font-size="14.00">HomeComponent</text>
</g>
<!-- HomeComponent&#45;&gt;HomeModule -->
<g id="edge5" class="edge">
<title>HomeComponent&#45;&gt;HomeModule</title>
<path fill="none" stroke="black" d="M1110,-85.04C1110,-100.37 1110,-119.8 1110,-119.8 1110,-119.8 927.93,-119.8 927.93,-119.8"/>
<polygon fill="black" stroke="black" points="927.93,-116.3 917.93,-119.8 927.93,-123.3 927.93,-116.3"/>
</g>
<!-- IndicateMoreComponent -->
<g id="node6" class="node">
<title>IndicateMoreComponent</title>
<polygon fill="#ffffb3" stroke="black" points="1034.24,-84.8 877.76,-84.8 877.76,-48.8 1034.24,-48.8 1034.24,-84.8"/>
<text text-anchor="middle" x="956" y="-62.6" font-family="Times,serif" font-size="14.00">IndicateMoreComponent</text>
</g>
<!-- IndicateMoreComponent&#45;&gt;HomeModule -->
<g id="edge6" class="edge">
<title>IndicateMoreComponent&#45;&gt;HomeModule</title>
<path fill="none" stroke="black" d="M897.76,-84.91C897.76,-84.91 897.76,-103.79 897.76,-103.79"/>
<polygon fill="black" stroke="black" points="894.26,-103.79 897.76,-113.79 901.26,-103.79 894.26,-103.79"/>
</g>
<!-- TestimonialComponent -->
<g id="node7" class="node">
<title>TestimonialComponent</title>
<polygon fill="#ffffb3" stroke="black" points="860.21,-84.8 711.79,-84.8 711.79,-48.8 860.21,-48.8 860.21,-84.8"/>
<text text-anchor="middle" x="786" y="-62.6" font-family="Times,serif" font-size="14.00">TestimonialComponent</text>
</g>
<!-- TestimonialComponent&#45;&gt;HomeModule -->
<g id="edge7" class="edge">
<title>TestimonialComponent&#45;&gt;HomeModule</title>
<path fill="none" stroke="black" d="M842.11,-84.91C842.11,-84.91 842.11,-103.79 842.11,-103.79"/>
<polygon fill="black" stroke="black" points="838.61,-103.79 842.11,-113.79 845.61,-103.79 838.61,-103.79"/>
</g>
<!-- BootstrapModule -->
<g id="node9" class="node">
<title>BootstrapModule</title>
<polygon fill="#8dd3c7" stroke="black" points="535.99,-84.8 532.99,-88.8 511.99,-88.8 508.99,-84.8 422.01,-84.8 422.01,-48.8 535.99,-48.8 535.99,-84.8"/>
<text text-anchor="middle" x="479" y="-62.6" font-family="Times,serif" font-size="14.00">BootstrapModule</text>
</g>
<!-- BootstrapModule&#45;&gt;HomeModule -->
<g id="edge8" class="edge">
<title>BootstrapModule&#45;&gt;HomeModule</title>
<path fill="none" stroke="black" d="M479,-84.82C479,-102.17 479,-125.8 479,-125.8 479,-125.8 814.11,-125.8 814.11,-125.8"/>
<polygon fill="black" stroke="black" points="814.11,-129.3 824.11,-125.8 814.1,-122.3 814.11,-129.3"/>
</g>
<!-- HomeRoutingModule -->
<g id="node10" class="node">
<title>HomeRoutingModule</title>
<polygon fill="#8dd3c7" stroke="black" points="404.38,-84.8 401.38,-88.8 380.38,-88.8 377.38,-84.8 265.62,-84.8 265.62,-48.8 404.38,-48.8 404.38,-84.8"/>
<text text-anchor="middle" x="335" y="-62.6" font-family="Times,serif" font-size="14.00">HomeRoutingModule</text>
</g>
<!-- HomeRoutingModule&#45;&gt;HomeModule -->
<g id="edge9" class="edge">
<title>HomeRoutingModule&#45;&gt;HomeModule</title>
<path fill="none" stroke="black" d="M335,-84.91C335,-104.14 335,-131.8 335,-131.8 335,-131.8 813.9,-131.8 813.9,-131.8"/>
<polygon fill="black" stroke="black" points="813.9,-135.3 823.9,-131.8 813.9,-128.3 813.9,-135.3"/>
</g>
<!-- MaterialModule -->
<g id="node11" class="node">
<title>MaterialModule</title>
<polygon fill="#8dd3c7" stroke="black" points="247.47,-84.8 244.47,-88.8 223.47,-88.8 220.47,-84.8 140.53,-84.8 140.53,-48.8 247.47,-48.8 247.47,-84.8"/>
<text text-anchor="middle" x="194" y="-62.6" font-family="Times,serif" font-size="14.00">MaterialModule</text>
</g>
<!-- MaterialModule&#45;&gt;HomeModule -->
<g id="edge10" class="edge">
<title>MaterialModule&#45;&gt;HomeModule</title>
<path fill="none" stroke="black" d="M194,-85.08C194,-106.12 194,-137.8 194,-137.8 194,-137.8 814.2,-137.8 814.2,-137.8"/>
<polygon fill="black" stroke="black" points="814.2,-141.3 824.2,-137.8 814.2,-134.3 814.2,-141.3"/>
</g>
<!-- SharedModule -->
<g id="node12" class="node">
<title>SharedModule</title>
<polygon fill="#8dd3c7" stroke="black" points="122.42,-84.8 119.42,-88.8 98.42,-88.8 95.42,-84.8 23.58,-84.8 23.58,-48.8 122.42,-48.8 122.42,-84.8"/>
<text text-anchor="middle" x="73" y="-62.6" font-family="Times,serif" font-size="14.00">SharedModule</text>
</g>
<!-- SharedModule&#45;&gt;HomeModule -->
<g id="edge11" class="edge">
<title>SharedModule&#45;&gt;HomeModule</title>
<path fill="none" stroke="black" d="M73,-84.89C73,-107.93 73,-144.8 73,-144.8 73,-144.8 814.06,-144.8 814.06,-144.8"/>
<polygon fill="black" stroke="black" points="814.06,-148.3 824.06,-144.8 814.06,-141.3 814.06,-148.3"/>
</g>
<!-- HomeService -->
<g id="node13" class="node">
<title>HomeService</title>
<ellipse fill="#fdb462" stroke="black" cx="624" cy="-66.8" rx="63.68" ry="18"/>
<text text-anchor="middle" x="624" y="-62.6" font-family="Times,serif" font-size="14.00">HomeService</text>
</g>
<!-- HomeService&#45;&gt;HomeModule -->
<g id="edge12" class="edge">
<title>HomeService&#45;&gt;HomeModule</title>
<path fill="none" stroke="black" d="M624,-85.04C624,-100.37 624,-119.8 624,-119.8 624,-119.8 813.96,-119.8 813.96,-119.8"/>
<polygon fill="black" stroke="black" points="813.96,-123.3 823.96,-119.8 813.96,-116.3 813.96,-123.3"/>
</g>
</g>
</svg>
